# Wavefront OBJ exported by MilkShape 3D

v -0.406972 0.411559 0.402385
v -0.406972 -0.402385 0.402385
v 0.406972 0.411559 0.402385
v 0.406972 -0.402385 0.402385
v 0.406972 0.411559 0.402385
v 0.406972 -0.402385 0.402385
v 0.406972 -0.402385 -0.411559
v 0.406972 -0.402385 -0.411559
v -0.406972 -0.402385 -0.411559
v -0.406972 0.411559 -0.411559
v -0.406972 -0.402385 -0.411559
v -0.406972 0.411559 0.402385
v -0.406972 -0.402385 0.402385
v -0.406972 0.411559 -0.411559
v -0.406972 0.411559 0.402385
v 0.406972 0.411559 0.402385
v -0.406972 -0.402385 0.402385
v -0.406972 -0.402385 -0.411559
v 0.406972 -0.402385 0.402385
v 0.406972 -0.402385 -0.411559
v -0.500000 0.004587 0.495413
v 0.500000 0.004587 0.495413
v -0.500000 0.004587 0.495413
v 0.445500 -0.440913 -0.004587
v -0.500000 -0.245413 0.495413
v 0.500000 -0.245413 0.495413
v 0.500000 0.254587 0.495413
v 0.445500 0.450087 0.218163
v 0.500000 -0.245413 0.495413
v 0.445500 -0.440913 -0.227337
v 0.500000 -0.245413 -0.504587
v 0.500000 -0.245413 -0.504587
v -0.222750 -0.440913 -0.450087
v -0.500000 -0.245413 -0.504587
v -0.500000 -0.245413 -0.504587
v -0.500000 -0.245413 0.495413
v 0.445500 0.450087 0.218163
v 0.445500 -0.440913 -0.227337
v -0.406972 0.411559 -0.411559
v 0.222750 0.450087 -0.450087
v 0.445500 0.450087 -0.227337
v 0.500000 0.254587 -0.504587
v 0.406972 0.411559 -0.411559
v 0.406972 0.411559 -0.411559
v 0.406972 0.411559 -0.411559
v 0.222750 -0.440913 0.440913
v 0.222750 -0.440913 0.440913
v -0.445500 0.450087 -0.004587
v -0.445500 0.450087 -0.004587
v -0.222750 -0.440913 0.440913
v -0.222750 -0.440913 0.440913
v 0.222750 0.450087 0.440913
v 0.222750 0.450087 0.440913
v -0.445500 -0.440913 0.218163
v -0.445500 -0.440913 0.218163
v -0.500000 0.254587 -0.504587
v 0.445500 -0.440913 0.218163
v 0.222750 -0.440913 -0.450087
v -0.500000 0.254587 0.495413
v -0.500000 0.004587 -0.504587
v 0.500000 0.004587 -0.504587
v 0.445500 0.450087 -0.004587
v 0.222750 -0.440913 -0.450087
v 0.222750 0.450087 -0.450087
v -0.000000 -0.440913 0.440913
v -0.000000 -0.440913 0.440913
v -0.000000 -0.440913 -0.450087
v 0.445500 0.450087 -0.004587
v -0.250000 0.004587 -0.504587
v -0.445500 0.450087 -0.227337
v -0.445500 0.450087 -0.227337
v -0.500000 0.254587 -0.504587
v -0.500000 0.004587 -0.504587
v 0.445500 -0.440913 0.218163
v 0.445500 -0.440913 -0.004587
v -0.445500 -0.440913 -0.004587
v -0.445500 -0.440913 -0.004587
v -0.445500 -0.440913 -0.227337
v -0.445500 -0.440913 -0.227337
v -0.500000 0.254587 -0.254587
v -0.500000 0.254587 -0.004587
v 0.500000 -0.245413 -0.254587
v -0.500000 0.004587 -0.254587
v -0.000000 0.450087 0.440913
v -0.000000 0.450087 0.440913
v 0.500000 -0.245413 -0.004587
v 0.000000 0.254587 0.495413
v 0.250000 0.004587 0.495413
v 0.500000 0.004587 -0.254587
v 0.250000 -0.495413 0.245413
v -0.445500 0.450087 0.218163
v -0.445500 0.450087 0.218163
v 0.445500 0.450087 -0.227337
v -0.500000 0.254587 0.245413
v 0.500000 0.254587 -0.504587
v 0.500000 0.254587 -0.254587
v 0.500000 0.254587 0.495413
v -0.222750 0.450087 -0.450087
v 0.500000 0.004587 -0.504587
v 0.250000 0.254587 0.495413
v -0.222750 0.450087 0.440913
v -0.222750 0.450087 0.440913
v 0.500000 0.004587 0.495413
v -0.250000 0.504587 -0.254587
v -0.000000 0.450087 -0.450087
v -0.250000 0.504587 0.245413
v -0.500000 -0.245413 0.245413
v -0.500000 0.004587 -0.004587
v -0.500000 -0.245413 -0.254587
v -0.250000 0.254587 -0.504587
v -0.500000 -0.245413 -0.004587
v 0.250000 0.004587 -0.504587
v 0.000000 -0.245413 0.495413
v -0.500000 0.004587 0.245413
v 0.500000 -0.245413 0.245413
v 0.250000 0.254587 -0.504587
v -0.000000 0.450087 -0.450087
v -0.250000 0.504587 -0.004587
v 0.000000 0.504587 -0.004587
v 0.500000 0.004587 -0.004587
v 0.000000 0.504587 -0.254587
v 0.000000 0.254587 -0.504587
v 0.000000 0.004587 0.495413
v 0.250000 0.504587 0.245413
v 0.250000 0.504587 -0.254587
v -0.222750 0.450087 -0.450087
v 0.000000 -0.245413 -0.504587
v 0.500000 0.254587 -0.004587
v 0.000000 0.504587 0.245413
v 0.250000 0.504587 -0.004587
v -0.000000 -0.440913 -0.450087
v 0.500000 0.254587 0.245413
v -0.250000 -0.245413 0.495413
v 0.000000 -0.495413 -0.004587
v -0.222750 -0.440913 -0.450087
v 0.000000 0.004587 -0.504587
v 0.250000 -0.245413 0.495413
v 0.000000 -0.495413 0.245413
v -0.250000 -0.495413 0.245413
v 0.250000 -0.245413 -0.504587
v -0.250000 -0.495413 -0.254587
v -0.250000 -0.245413 -0.504587
v -0.250000 -0.495413 -0.004587
v 0.250000 -0.495413 -0.254587
v 0.000000 -0.495413 -0.254587
v 0.500000 0.004587 0.245413
v -0.250000 0.004587 0.495413
v 0.250000 -0.495413 -0.004587
v -0.250000 0.254587 0.495413
v -0.500000 0.254587 0.495413
# 150 vertices

vt 0.000000 0.500000
vt 0.250000 0.500000
vt 0.250000 0.750000
vt 0.500000 0.750000
vt 0.500000 0.500000
vt 0.750000 0.750000
vt 0.750000 0.000000
vt 1.000000 0.000000
vt 1.000000 0.250000
vt 0.750000 0.250000
vt 1.000000 0.500000
vt 0.750000 0.500000
vt 0.500000 0.250000
vt 1.000000 0.750000
vt 0.000000 0.750000
vt 0.250000 1.000000
vt 0.500000 1.000000
vt 0.000000 0.250000
vt 0.500000 0.000000
vt 0.250000 0.250000
vt 0.750000 1.000000
vt 1.000000 1.000000
vt 0.000000 0.000000
vt 0.250000 0.000000
vt 0.000000 1.000000
# 25 texture coordinates

vn 0.000000 0.000000 1.000000
vn 0.000000 0.135517 0.990775
vn 0.043414 0.183042 0.982146
vn 0.096759 -0.392231 0.914763
vn 0.282324 -0.607383 0.742549
vn 0.098782 -0.306474 0.946739
vn 0.000000 -0.135517 0.990775
vn -0.000000 0.175481 0.984483
vn 0.946739 0.306474 0.098782
vn 0.990775 0.135517 0.000000
vn 0.914764 0.392231 0.096759
vn 0.963270 0.268533 0.000000
vn 1.000000 0.000000 0.000000
vn 0.984483 -0.175481 0.000000
vn 0.963270 -0.268533 0.000000
vn 0.914764 -0.392231 -0.096759
vn 0.990775 -0.135517 0.000000
vn 0.742549 -0.607383 -0.282324
vn 0.946739 -0.306474 -0.098782
vn 0.000000 -0.175481 -0.984483
vn 0.043414 -0.183041 -0.982146
vn 0.000000 0.000000 -1.000000
vn -0.096759 -0.392231 -0.914764
vn -0.282324 -0.607383 -0.742549
vn -0.098782 -0.306474 -0.946739
vn 0.000000 -0.135517 -0.990775
vn -1.000000 0.000000 0.000000
vn -0.984483 -0.175481 0.000000
vn -0.982146 -0.183041 -0.043414
vn -0.914764 -0.392231 0.096759
vn -0.946739 -0.306474 0.098782
vn -0.990775 -0.135517 0.000000
vn -0.984483 0.175481 -0.000000
vn -0.982146 0.183041 0.043414
vn -0.272642 0.944680 -0.182335
vn -0.268533 0.963270 0.000000
vn -0.141398 0.979803 -0.141398
vn 0.182335 0.944680 0.272642
vn 0.247691 0.936642 0.247691
vn 0.272642 0.944680 0.182335
vn 0.000000 -0.990775 0.135517
vn 0.138488 -0.980634 0.138488
vn 0.085292 -0.956621 0.278569
vn 0.273294 -0.922291 0.273294
vn 0.182335 -0.944680 -0.272642
vn 0.247691 -0.936642 -0.247691
vn 0.272642 -0.944680 -0.182335
vn 0.000000 -0.990775 -0.135517
vn 0.135517 -0.990775 0.000000
vn 0.000000 -1.000000 0.000000
vn -0.043414 0.183041 -0.982146
vn -0.128861 0.407048 -0.904272
vn 0.000000 0.175481 -0.984483
vn 0.141398 0.979803 0.141398
vn 0.984483 0.175481 0.000000
vn 0.096759 0.392231 -0.914764
vn 0.098782 0.306474 -0.946739
vn 0.000000 0.135517 -0.990775
vn 0.278568 0.956622 -0.085292
vn 0.135517 0.990775 -0.000000
vn 0.268533 0.963270 -0.000000
vn -0.182335 -0.944680 0.272642
vn -0.141398 -0.979803 0.141398
vn 0.000000 -0.963270 0.268533
vn -0.990775 0.135517 0.000000
vn -0.138488 0.980634 0.138488
vn 0.000000 1.000000 0.000000
vn -0.135517 0.990775 0.000000
vn -0.128861 -0.407048 0.904271
vn -0.085292 -0.278569 0.956622
vn -0.043414 -0.183042 0.982146
vn -0.272642 -0.944680 0.182335
vn 0.000000 0.963270 0.268533
vn -0.247691 -0.936642 0.247691
vn -0.742549 -0.607383 0.282324
vn 0.268533 -0.963270 0.000000
vn 0.141398 -0.979803 -0.141398
vn 0.000000 -0.963270 -0.268533
vn 0.128861 -0.407048 -0.904272
vn 0.000000 0.990775 -0.135517
vn 0.000000 -0.268533 0.963270
vn -0.085292 -0.956622 -0.278568
vn 0.956622 0.278568 -0.085292
vn -0.247691 0.936642 -0.247691
vn -0.182335 0.944680 -0.272642
vn -0.946739 0.306474 -0.098782
vn -0.914764 0.392231 -0.096759
vn -0.742550 0.607382 -0.282324
vn 0.956622 -0.278568 0.085292
vn -0.268533 -0.963270 0.000000
vn -0.904271 -0.407048 -0.128861
vn -0.135517 -0.990775 0.000000
vn -0.278568 -0.956621 -0.085292
vn -0.963270 0.268533 0.000000
vn -0.956622 0.278568 0.085292
vn -0.085292 0.956622 0.278568
vn 0.000000 0.990775 0.135517
vn 0.000000 0.268533 0.963270
vn 0.982146 -0.183041 0.043414
vn 0.085292 0.278568 0.956622
vn 0.982146 0.183041 -0.043414
vn 0.278569 -0.956622 0.085292
vn -0.278568 0.956622 0.085292
vn -0.904272 0.407048 0.128861
vn 0.282324 0.607382 -0.742550
vn 0.904272 0.407048 -0.128861
vn 0.742550 0.607382 0.282324
vn 0.128861 0.407048 0.904271
vn -0.273294 0.922291 0.273294
vn -0.096759 0.392231 0.914764
vn 0.000000 0.963270 -0.268533
vn 0.085292 0.956622 -0.278568
vn -0.963270 -0.268533 0.000000
vn -0.956622 -0.278568 -0.085292
vn 0.904271 -0.407048 0.128861
vn 0.000000 0.268533 -0.963270
vn -0.085292 0.278568 -0.956622
vn 0.138488 0.980634 -0.138488
vn 0.000000 -0.175481 0.984483
vn 0.273294 0.922291 -0.273294
vn 0.085292 -0.278568 -0.956622
vn 0.000000 -0.268533 -0.963270
vn -0.138488 -0.980634 -0.138488
vn -0.273294 -0.922291 -0.273294
vn -0.098782 0.306474 0.946739
vn -0.282324 0.607382 0.742550
# 126 normals
s off
f 21/1/1 147/2/1 149/3/2
f 87/4/2 123/5/1 100/6/3
f 46/7/4 4/8/5 26/9/6
f 137/10/7 26/9/6 22/11/1
f 137/10/7 22/11/1 88/12/1
f 113/13/7 88/12/1 123/5/1
f 88/12/1 22/11/1 27/14/8
f 97/15/9 132/3/10 28/16/11
f 28/16/11 132/3/10 68/17/12
f 103/1/13 29/18/14 146/2/13
f 75/19/15 30/7/16 82/10/17
f 30/7/16 7/8/18 31/9/19
f 32/18/20 140/20/21 112/2/22
f 33/7/23 9/8/24 34/9/25
f 142/10/26 69/12/22 127/13/26
f 73/1/27 35/18/28 83/2/27
f 35/18/28 109/20/29 83/2/27
f 55/7/30 36/9/31 107/10/32
f 107/10/32 36/9/31 23/11/27
f 114/12/27 59/14/33 94/6/34
f 70/15/35 49/1/36 104/3/37
f 52/7/38 16/8/39 37/9/40
f 138/4/41 90/6/42 47/21/43
f 47/21/43 90/6/42 19/22/44
f 58/7/45 20/8/46 38/9/47
f 145/13/48 148/12/49 134/5/50
f 69/12/22 110/6/51 136/5/22
f 39/22/52 110/6/51 56/14/53
f 37/9/40 124/10/54 52/7/38
f 82/10/17 89/12/13 86/13/17
f 42/14/55 89/12/13 61/11/13
f 40/16/56 95/15/57 116/3/58
f 41/14/59 130/12/60 62/11/61
f 113/13/7 137/10/7 88/12/1
f 51/16/62 139/3/63 65/17/64
f 81/4/65 83/2/27 108/5/27
f 106/20/66 119/5/67 118/2/68
f 2/23/69 50/24/70 133/20/71
f 54/15/72 139/3/63 51/16/62
f 84/19/73 52/7/38 124/10/54
f 149/3/2 147/2/1 87/4/2
f 17/25/74 54/15/72 51/16/62
f 13/8/75 36/9/31 55/7/30
f 60/11/22 69/12/22 142/10/26
f 24/11/76 148/12/49 144/10/77
f 67/19/78 58/7/45 144/10/77
f 23/11/27 59/14/33 114/12/27
f 34/9/25 60/11/22 142/10/26
f 31/9/19 82/10/17 30/7/16
f 37/9/40 62/11/61 124/10/54
f 8/23/79 140/20/21 32/18/20
f 121/4/80 104/3/37 118/2/68
f 47/21/43 65/17/64 138/4/41
f 137/10/7 113/13/7 66/19/81
f 135/24/82 67/19/78 145/13/48
f 93/21/83 68/17/12 128/4/10
f 56/14/53 69/12/22 60/11/22
f 56/14/53 110/6/51 69/12/22
f 14/25/84 70/15/35 98/16/85
f 72/15/86 80/3/65 71/16/87
f 10/25/88 72/15/86 71/16/87
f 72/15/86 73/1/27 80/3/65
f 86/13/17 75/19/15 82/10/17
f 74/24/89 75/19/15 86/13/17
f 108/5/27 114/12/27 94/6/34
f 139/3/63 54/15/72 77/1/90
f 11/23/91 109/20/29 35/18/28
f 143/2/92 77/1/90 79/18/93
f 48/17/94 80/3/65 81/4/65
f 48/17/94 71/16/87 80/3/65
f 94/6/34 81/4/65 108/5/27
f 91/21/95 48/17/94 81/4/65
f 61/11/13 82/10/17 31/9/19
f 61/11/13 89/12/13 82/10/17
f 80/3/65 83/2/27 81/4/65
f 80/3/65 73/1/27 83/2/27
f 101/24/96 84/19/73 129/13/97
f 149/3/2 87/4/2 85/17/98
f 120/5/13 86/13/17 89/12/13
f 115/20/99 74/24/89 86/13/17
f 53/21/100 87/4/2 100/6/3
f 53/21/100 85/17/98 87/4/2
f 100/6/3 88/12/1 27/14/8
f 100/6/3 123/5/1 88/12/1
f 96/6/101 89/12/13 42/14/55
f 96/6/101 120/5/13 89/12/13
f 57/14/102 148/12/49 24/11/76
f 57/14/102 19/22/44 90/6/42
f 94/6/34 91/21/95 81/4/65
f 106/20/66 118/2/68 92/18/103
f 96/6/101 93/21/83 128/4/10
f 12/22/104 94/6/34 59/14/33
f 12/22/104 91/21/95 94/6/34
f 44/25/105 95/15/57 40/16/56
f 43/22/106 96/6/101 42/14/55
f 43/22/106 93/21/83 96/6/101
f 5/25/107 97/15/9 28/16/11
f 104/3/37 98/16/85 70/15/35
f 95/15/57 99/1/22 116/3/58
f 3/22/108 100/6/3 27/14/8
f 3/22/108 53/21/100 100/6/3
f 15/23/109 106/20/66 92/18/103
f 149/3/2 85/17/98 102/16/110
f 97/15/9 103/1/13 132/3/10
f 105/17/111 104/3/37 121/4/80
f 105/17/111 98/16/85 104/3/37
f 64/21/112 105/17/111 121/4/80
f 101/24/96 106/20/66 15/23/109
f 101/24/96 129/13/97 106/20/66
f 76/19/113 111/13/32 78/24/114
f 76/19/113 55/7/30 107/10/32
f 78/24/114 109/20/29 11/23/91
f 78/24/114 111/13/32 109/20/29
f 108/5/27 109/20/29 111/13/32
f 108/5/27 83/2/27 109/20/29
f 99/1/22 112/2/22 116/3/58
f 99/1/22 32/18/20 112/2/22
f 107/10/32 111/13/32 76/19/113
f 107/10/32 23/11/27 114/12/27
f 122/4/58 112/2/22 136/5/22
f 122/4/58 116/3/58 112/2/22
f 50/24/70 113/13/7 133/20/71
f 50/24/70 66/19/81 113/13/7
f 111/13/32 114/12/27 108/5/27
f 111/13/32 107/10/32 114/12/27
f 6/23/115 115/20/99 29/18/14
f 6/23/115 74/24/89 115/20/99
f 117/17/116 116/3/58 122/4/58
f 117/17/116 40/16/56 116/3/58
f 126/21/117 117/17/116 122/4/58
f 49/1/36 118/2/68 104/3/37
f 49/1/36 92/18/103 118/2/68
f 129/13/97 119/5/67 106/20/66
f 125/6/118 64/21/112 121/4/80
f 115/20/99 146/2/13 29/18/14
f 115/20/99 86/13/17 120/5/13
f 119/5/67 121/4/80 118/2/68
f 119/5/67 125/6/118 121/4/80
f 110/6/51 122/4/58 136/5/22
f 110/6/51 126/21/117 122/4/58
f 147/2/1 123/5/1 87/4/2
f 25/18/119 2/23/69 133/20/71
f 45/22/120 125/6/118 41/14/59
f 45/22/120 64/21/112 125/6/118
f 130/12/60 125/6/118 119/5/67
f 130/12/60 41/14/59 125/6/118
f 39/22/52 126/21/117 110/6/51
f 63/24/121 140/20/21 8/23/79
f 131/19/122 142/10/26 127/13/26
f 120/5/13 146/2/13 115/20/99
f 120/5/13 96/6/101 128/4/10
f 124/10/54 129/13/97 84/19/73
f 124/10/54 62/11/61 130/12/60
f 129/13/97 130/12/60 119/5/67
f 129/13/97 124/10/54 130/12/60
f 63/24/121 131/19/122 127/13/26
f 146/2/13 132/3/10 103/1/13
f 128/4/10 68/17/12 132/3/10
f 123/5/1 133/20/71 113/13/7
f 123/5/1 147/2/1 133/20/71
f 141/20/123 143/2/92 79/18/93
f 141/20/123 145/13/48 134/5/50
f 18/23/124 141/20/123 79/18/93
f 127/13/26 140/20/21 63/24/121
f 127/13/26 69/12/22 136/5/22
f 46/7/4 137/10/7 66/19/81
f 46/7/4 26/9/6 137/10/7
f 134/5/50 143/2/92 141/20/123
f 134/5/50 90/6/42 138/4/41
f 143/2/92 139/3/63 77/1/90
f 138/4/41 65/17/64 139/3/63
f 136/5/22 140/20/21 127/13/26
f 136/5/22 112/2/22 140/20/21
f 135/24/82 141/20/123 18/23/124
f 135/24/82 145/13/48 141/20/123
f 33/7/23 142/10/26 131/19/122
f 33/7/23 34/9/25 142/10/26
f 138/4/41 143/2/92 134/5/50
f 138/4/41 139/3/63 143/2/92
f 38/9/47 144/10/77 58/7/45
f 38/9/47 24/11/76 144/10/77
f 144/10/77 145/13/48 67/19/78
f 144/10/77 148/12/49 145/13/48
f 128/4/10 146/2/13 120/5/13
f 128/4/10 132/3/10 146/2/13
f 25/18/119 147/2/1 21/1/1
f 25/18/119 133/20/71 147/2/1
f 90/6/42 148/12/49 57/14/102
f 90/6/42 134/5/50 148/12/49
f 150/15/125 149/3/2 102/16/110
f 150/15/125 21/1/1 149/3/2
f 1/25/126 150/15/125 102/16/110
# 192 triangles in group

# 192 triangles total

