# Wavefront OBJ exported by MilkShape 3D

v 0.150000 2.099983 0.600000
v 0.150000 2.100000 0.500000
v -0.150000 2.099983 0.600000
v -0.150000 2.100000 0.500000
v -0.150000 -0.000000 0.600000
v -0.150000 0.000016 0.500000
v 0.150000 -0.000000 0.600000
v 0.150000 0.000016 0.500000
v 0.150000 2.099983 -0.500000
v 0.150000 2.100000 -0.600000
v -0.150000 2.099983 -0.500000
v -0.150000 2.100000 -0.600000
v -0.150000 -0.000000 -0.500000
v -0.150000 0.000016 -0.600000
v 0.150000 -0.000000 -0.500000
v 0.150000 0.000016 -0.600000
v -0.150000 2.100000 0.600000
v -0.150000 2.100000 -0.600000
v 0.150000 2.100000 0.600000
v 0.150000 2.100000 -0.600000
v 0.150000 2.200000 0.600000
v 0.150000 2.200000 -0.600000
v -0.150000 2.200000 0.600000
v -0.150000 2.200000 -0.600000
v -0.110000 3.100000 0.600000
v -0.110000 2.200000 0.600000
v 0.110000 3.100000 0.600000
v 0.110000 2.200000 0.600000
v 0.110000 3.100000 -0.600000
v 0.110000 2.200000 -0.600000
v -0.110000 3.100000 -0.600000
v -0.110000 2.200000 -0.600000
# 32 vertices

vt 0.000000 1.000000
vt 0.000000 0.000000
vt 1.000000 1.000000
vt 1.000000 0.000000
# 4 texture coordinates

vn 0.000000 1.000000 0.000167
vn -1.000000 0.000000 0.000000
vn 0.000000 -1.000000 -0.000165
vn 1.000000 0.000000 0.000000
vn 0.000000 0.000000 1.000000
vn 0.000000 0.000000 -1.000000
# 6 normals

g Duplicate02
s 1
f 1/1/1 2/2/1 3/3/1
f 2/2/1 4/4/1 3/3/1
s 2
f 3/1/2 4/2/2 5/3/2
f 4/2/2 6/4/2 5/3/2
s 1
f 5/1/3 6/2/3 7/3/3
f 6/2/3 8/4/3 7/3/3
s 2
f 7/1/4 8/2/4 1/3/4
f 8/2/4 2/4/4 1/3/4
s 3
f 7/1/5 1/2/5 5/3/5
f 1/2/5 3/4/5 5/3/5
f 2/1/6 8/2/6 4/3/6
f 8/2/6 6/4/6 4/3/6
# 12 triangles in group

g Duplicate00
s 1
f 9/1/1 10/2/1 11/3/1
f 10/2/1 12/4/1 11/3/1
s 2
f 11/1/2 12/2/2 13/3/2
f 12/2/2 14/4/2 13/3/2
s 1
f 13/1/3 14/2/3 15/3/3
f 14/2/3 16/4/3 15/3/3
s 2
f 15/1/4 16/2/4 9/3/4
f 16/2/4 10/4/4 9/3/4
s 3
f 15/1/5 9/2/5 13/3/5
f 9/2/5 11/4/5 13/3/5
f 10/1/6 16/2/6 12/3/6
f 16/2/6 14/4/6 12/3/6
# 12 triangles in group

g Box02
s 1
f 17/1/3 18/2/3 19/3/3
f 18/2/3 20/4/3 19/3/3
s 2
f 19/1/4 20/2/4 21/3/4
f 20/2/4 22/4/4 21/3/4
s 1
f 21/1/1 22/2/1 23/3/1
f 22/2/1 24/4/1 23/3/1
s 2
f 23/1/2 24/2/2 17/3/2
f 24/2/2 18/4/2 17/3/2
s 3
f 23/1/5 17/2/5 21/3/5
f 17/2/5 19/4/5 21/3/5
f 18/1/6 24/2/6 20/3/6
f 24/2/6 22/4/6 20/3/6
# 12 triangles in group

g Box03
s 1
f 25/1/5 26/2/5 27/3/5
f 26/2/5 28/4/5 27/3/5
s 2
f 27/1/4 28/2/4 29/3/4
f 28/2/4 30/4/4 29/3/4
s 1
f 29/1/6 30/2/6 31/3/6
f 30/2/6 32/4/6 31/3/6
s 2
f 31/1/2 32/2/2 25/3/2
f 32/2/2 26/4/2 25/3/2
s 3
f 31/1/1 25/2/1 29/3/1
f 25/2/1 27/4/1 29/3/1
f 26/1/3 32/2/3 28/3/3
f 32/2/3 30/4/3 28/3/3
# 12 triangles in group

# 48 triangles total

