# Wavefront OBJ exported by MilkShape 3D

v 0.150000 2.099983 0.600000
v 0.150000 2.100000 0.500000
v -0.150000 2.099983 0.600000
v 0.150000 2.100000 0.500000
v -0.150000 2.100000 0.500000
v -0.150000 2.099983 0.600000
v -0.150000 -0.000000 0.600000
v -0.150000 0.000016 0.500000
v 0.150000 -0.000000 0.600000
v -0.150000 0.000016 0.500000
v 0.150000 0.000016 0.500000
v 0.150000 -0.000000 0.600000
v 0.150000 -0.000000 0.600000
v 0.150000 2.099983 0.600000
v -0.150000 -0.000000 0.600000
v 0.150000 2.099983 0.600000
v -0.150000 2.099983 0.600000
v -0.150000 -0.000000 0.600000
v 0.150000 2.100000 0.500000
v 0.150000 0.000016 0.500000
v -0.150000 2.100000 0.500000
v 0.150000 0.000016 0.500000
v -0.150000 0.000016 0.500000
v -0.150000 2.100000 0.500000
v -0.150000 2.099983 0.600000
v -0.150000 2.100000 0.500000
v -0.150000 -0.000000 0.600000
v -0.150000 2.100000 0.500000
v -0.150000 0.000016 0.500000
v -0.150000 -0.000000 0.600000
v 0.150000 -0.000000 0.600000
v 0.150000 0.000016 0.500000
v 0.150000 2.099983 0.600000
v 0.150000 0.000016 0.500000
v 0.150000 2.100000 0.500000
v 0.150000 2.099983 0.600000
v 0.150000 2.099983 -0.500000
v 0.150000 2.100000 -0.600000
v -0.150000 2.099983 -0.500000
v 0.150000 2.100000 -0.600000
v -0.150000 2.100000 -0.600000
v -0.150000 2.099983 -0.500000
v -0.150000 -0.000000 -0.500000
v -0.150000 0.000016 -0.600000
v 0.150000 -0.000000 -0.500000
v -0.150000 0.000016 -0.600000
v 0.150000 0.000016 -0.600000
v 0.150000 -0.000000 -0.500000
v 0.150000 -0.000000 -0.500000
v 0.150000 2.099983 -0.500000
v -0.150000 -0.000000 -0.500000
v 0.150000 2.099983 -0.500000
v -0.150000 2.099983 -0.500000
v -0.150000 -0.000000 -0.500000
v 0.150000 2.100000 -0.600000
v 0.150000 0.000016 -0.600000
v -0.150000 2.100000 -0.600000
v 0.150000 0.000016 -0.600000
v -0.150000 0.000016 -0.600000
v -0.150000 2.100000 -0.600000
v -0.150000 2.099983 -0.500000
v -0.150000 2.100000 -0.600000
v -0.150000 -0.000000 -0.500000
v -0.150000 2.100000 -0.600000
v -0.150000 0.000016 -0.600000
v -0.150000 -0.000000 -0.500000
v 0.150000 -0.000000 -0.500000
v 0.150000 0.000016 -0.600000
v 0.150000 2.099983 -0.500000
v 0.150000 0.000016 -0.600000
v 0.150000 2.100000 -0.600000
v 0.150000 2.099983 -0.500000
v -0.150000 2.100000 0.600000
v -0.150000 2.100000 -0.600000
v 0.150000 2.100000 0.600000
v -0.150000 2.100000 -0.600000
v 0.150000 2.100000 -0.600000
v 0.150000 2.100000 0.600000
v 0.150000 2.200000 0.600000
v 0.150000 2.200000 -0.600000
v -0.150000 2.200000 0.600000
v 0.150000 2.200000 -0.600000
v -0.150000 2.200000 -0.600000
v -0.150000 2.200000 0.600000
v -0.150000 2.200000 0.600000
v -0.150000 2.100000 0.600000
v 0.150000 2.200000 0.600000
v -0.150000 2.100000 0.600000
v 0.150000 2.100000 0.600000
v 0.150000 2.200000 0.600000
v -0.150000 2.100000 -0.600000
v -0.150000 2.200000 -0.600000
v 0.150000 2.100000 -0.600000
v -0.150000 2.200000 -0.600000
v 0.150000 2.200000 -0.600000
v 0.150000 2.100000 -0.600000
v 0.150000 2.100000 0.600000
v 0.150000 2.100000 -0.600000
v 0.150000 2.200000 0.600000
v 0.150000 2.100000 -0.600000
v 0.150000 2.200000 -0.600000
v 0.150000 2.200000 0.600000
v -0.150000 2.200000 0.600000
v -0.150000 2.200000 -0.600000
v -0.150000 2.100000 0.600000
v -0.150000 2.200000 -0.600000
v -0.150000 2.100000 -0.600000
v -0.150000 2.100000 0.600000
v -0.110000 3.100000 -0.600000
v -0.110000 3.100000 0.600000
v 0.110000 3.100000 -0.600000
v -0.110000 3.100000 0.600000
v 0.110000 3.100000 0.600000
v 0.110000 3.100000 -0.600000
v -0.110000 2.200000 0.600000
v -0.110000 2.200000 -0.600000
v 0.110000 2.200000 0.600000
v -0.110000 2.200000 -0.600000
v 0.110000 2.200000 -0.600000
v 0.110000 2.200000 0.600000
v -0.110000 3.100000 0.600000
v -0.110000 2.200000 0.600000
v 0.110000 3.100000 0.600000
v -0.110000 2.200000 0.600000
v 0.110000 2.200000 0.600000
v 0.110000 3.100000 0.600000
v 0.110000 3.100000 -0.600000
v 0.110000 2.200000 -0.600000
v -0.110000 3.100000 -0.600000
v 0.110000 2.200000 -0.600000
v -0.110000 2.200000 -0.600000
v -0.110000 3.100000 -0.600000
v 0.110000 3.100000 0.600000
v 0.110000 2.200000 0.600000
v 0.110000 3.100000 -0.600000
v 0.110000 2.200000 0.600000
v 0.110000 2.200000 -0.600000
v 0.110000 3.100000 -0.600000
v -0.110000 3.100000 -0.600000
v -0.110000 2.200000 -0.600000
v -0.110000 3.100000 0.600000
v -0.110000 2.200000 -0.600000
v -0.110000 2.200000 0.600000
v -0.110000 3.100000 0.600000
# 144 vertices

vt 0.000000 0.000000
vt 0.000000 0.083333
vt 1.000000 0.322586
vt 0.916667 0.322581
vt 1.000000 1.000000
vt 0.916667 0.999995
vt 0.000000 1.000000
vt 0.000000 0.322586
vt 0.000000 0.916667
vt 0.083333 0.322586
vt 0.083333 1.000000
vt 1.000000 0.290323
vt 0.000000 0.290323
vt 1.000000 0.000000
# 14 texture coordinates

vn 0.000000 1.000000 0.000167
vn -1.000000 0.000000 0.000000
vn 0.000000 -1.000000 -0.000165
vn 1.000000 0.000000 0.000000
vn 0.000000 0.000000 1.000000
vn 0.000000 0.000000 -1.000000
# 6 normals

g Duplicate02
s 1
f 1/1/1 2/2/1 3/1/1
f 4/2/1 5/2/1 6/1/1
s 2
f 25/3/2 26/4/2 27/5/2
f 28/4/2 29/6/2 30/5/2
s 1
f 7/1/3 8/2/3 9/1/3
f 10/2/3 11/2/3 12/1/3
s 2
f 31/5/4 32/6/4 33/3/4
f 34/6/4 35/4/4 36/3/4
s 3
f 13/7/5 14/8/5 15/7/5
f 16/8/5 17/8/5 18/7/5
f 19/8/6 20/7/6 21/8/6
f 22/7/6 23/7/6 24/8/6
# 12 triangles in group

g Duplicate00
s 1
f 37/9/1 38/7/1 39/9/1
f 40/7/1 41/7/1 42/9/1
s 2
f 61/10/2 62/8/2 63/11/2
f 64/8/2 65/7/2 66/11/2
s 1
f 43/9/3 44/7/3 45/9/3
f 46/7/3 47/7/3 48/9/3
s 2
f 67/11/4 68/7/4 69/10/4
f 70/7/4 71/8/4 72/10/4
s 3
f 49/7/5 50/8/5 51/7/5
f 52/8/5 53/8/5 54/7/5
f 55/8/6 56/7/6 57/8/6
f 58/7/6 59/7/6 60/8/6
# 12 triangles in group

g Box02
s 1
f 73/1/3 74/7/3 75/1/3
f 76/7/3 77/7/3 78/1/3
s 2
f 97/3/4 98/8/4 99/12/4
f 100/8/4 101/13/4 102/12/4
s 1
f 79/1/1 80/7/1 81/1/1
f 82/7/1 83/7/1 84/1/1
s 2
f 103/12/2 104/13/2 105/3/2
f 106/13/2 107/8/2 108/3/2
s 3
f 85/13/5 86/8/5 87/13/5
f 88/8/5 89/8/5 90/13/5
f 91/8/6 92/13/6 93/8/6
f 94/13/6 95/13/6 96/8/6
# 12 triangles in group

g Box03
s 1
f 121/1/5 122/13/5 123/1/5
f 124/13/5 125/13/5 126/1/5
s 2
f 133/14/4 134/12/4 135/1/4
f 136/12/4 137/13/4 138/1/4
s 1
f 127/1/6 128/13/6 129/1/6
f 130/13/6 131/13/6 132/1/6
s 2
f 139/1/2 140/13/2 141/14/2
f 142/13/2 143/12/2 144/14/2
s 3
f 109/7/1 110/1/1 111/7/1
f 112/1/1 113/1/1 114/7/1
f 115/1/3 116/7/3 117/1/3
f 118/7/3 119/7/3 120/1/3
# 12 triangles in group

# 48 triangles total

