# Wavefront OBJ exported by MilkShape 3D

mtllib wall.mtl

v 0.051250 0.063733 0.500000
v 0.051250 0.063750 -0.500000
v -0.051250 0.063733 0.500000
v 0.051250 0.063750 -0.500000
v -0.051250 0.063750 -0.500000
v -0.051250 0.063733 0.500000
v -0.051250 0.063733 0.500000
v -0.051250 0.063750 -0.500000
v -0.051250 -0.001250 0.500000
v -0.051250 0.063750 -0.500000
v -0.051250 -0.001233 -0.500000
v -0.051250 -0.001250 0.500000
v -0.051250 -0.001250 0.500000
v -0.051250 -0.001233 -0.500000
v 0.051250 -0.001250 0.500000
v -0.051250 -0.001233 -0.500000
v 0.051250 -0.001233 -0.500000
v 0.051250 -0.001250 0.500000
v 0.051250 -0.001250 0.500000
v 0.051250 -0.001233 -0.500000
v 0.051250 0.063733 0.500000
v 0.051250 -0.001233 -0.500000
v 0.051250 0.063750 -0.500000
v 0.051250 0.063733 0.500000
v 0.051250 -0.001250 0.500000
v 0.051250 0.063733 0.500000
v -0.051250 -0.001250 0.500000
v 0.051250 0.063733 0.500000
v -0.051250 0.063733 0.500000
v -0.051250 -0.001250 0.500000
v 0.051250 0.063750 -0.500000
v 0.051250 -0.001233 -0.500000
v -0.051250 0.063750 -0.500000
v 0.051250 -0.001233 -0.500000
v -0.051250 -0.001233 -0.500000
v -0.051250 0.063750 -0.500000
# 36 vertices

vt 4.310000 0.000000
vt 0.000000 0.000000
vt 4.310000 1.000000
vt 0.000000 1.000000
# 4 texture coordinates

vn 0.000000 1.000000 0.000017
vn -1.000000 0.000000 0.000000
vn 0.000000 -1.000000 -0.000017
vn 1.000000 0.000000 0.000000
vn 0.000000 0.000000 1.000000
vn 0.000000 0.000000 -1.000000
# 6 normals

g Duplicate02
usemtl Material02
s 1
f 1/1/1 2/2/1 3/3/1
f 4/2/1 5/4/1 6/3/1
s 2
f 7/3/2 8/4/2 9/3/2
f 10/4/2 11/4/2 12/3/2
s 1
f 13/3/3 14/4/3 15/1/3
f 16/4/3 17/2/3 18/1/3
s 2
f 19/1/4 20/2/4 21/1/4
f 22/2/4 23/2/4 24/1/4
s 3
f 25/1/5 26/1/5 27/3/5
f 28/1/5 29/3/5 30/3/5
f 31/2/6 32/2/6 33/4/6
f 34/2/6 35/4/6 36/4/6
# 12 triangles in group

# 12 triangles total

